<?xml version="1.0" standalone="no"?>
<!DOCTYPE svg PUBLIC "-//W3C//DTD SVG 20010904//EN"
 "http://www.w3.org/TR/2001/REC-SVG-20010904/DTD/svg10.dtd">
<svg version="1.0" xmlns="http://www.w3.org/2000/svg"
 width="218.000000pt" height="218.000000pt" viewBox="0 0 218.000000 218.000000"
 preserveAspectRatio="xMidYMid meet">
<metadata>
Created by potrace 1.14, written by Peter Selinger 2001-2017
</metadata>
<g transform="translate(0.000000,218.000000) scale(0.100000,-0.100000)"
fill="#000000" stroke="none">
<path d="M352 2143 c-8 -3 -80 -73 -162 -155 -154 -155 -173 -185 -149 -230 7
-13 159 -170 340 -351 l327 -327 -42 -29 c-23 -16 -173 -160 -333 -320 -302
-302 -319 -323 -292 -373 7 -13 78 -89 159 -170 210 -210 152 -228 557 177
179 179 329 325 333 325 4 0 151 -143 326 -318 176 -176 327 -323 338 -329 44
-24 82 0 230 149 79 78 148 153 155 166 27 50 10 71 -295 376 -291 291 -355
346 -457 390 -106 46 -175 60 -302 59 -108 0 -129 -3 -215 -32 -52 -18 -100
-37 -107 -43 -7 -6 -13 -8 -13 -5 0 2 69 74 154 159 154 154 174 183 162 232
-6 23 -600 626 -636 646 -20 11 -56 12 -78 3z"/>
</g>
</svg>
